<svg width="78" height="78" viewBox="0 0 78 78" fill="none" xmlns="http://www.w3.org/2000/svg">
<path d="M39 4.875C20.1551 4.875 4.875 20.1551 4.875 39C4.875 57.8449 20.1551 73.125 39 73.125C57.8449 73.125 73.125 57.8449 73.125 39C73.125 20.1551 57.8449 4.875 39 4.875ZM39 67.3359C23.3543 67.3359 10.6641 54.6457 10.6641 39C10.6641 23.3543 23.3543 10.6641 39 10.6641C54.6457 10.6641 67.3359 23.3543 67.3359 39C67.3359 54.6457 54.6457 67.3359 39 67.3359Z" fill="#E0E0E0"/>
<path d="M54.798 38.0173L32.2436 21.6403C32.0627 21.5077 31.8485 21.428 31.6249 21.4099C31.4014 21.3919 31.1772 21.4363 30.9774 21.5382C30.7776 21.64 30.61 21.7954 30.4933 21.9869C30.3766 22.1785 30.3153 22.3987 30.3164 22.623V55.3769C30.3164 56.3747 31.4438 56.9384 32.2436 56.3595L54.798 39.9825C54.9538 39.8703 55.0806 39.7227 55.1681 39.5519C55.2555 39.381 55.3011 39.1918 55.3011 38.9999C55.3011 38.808 55.2555 38.6188 55.1681 38.4479C55.0806 38.2771 54.9538 38.1295 54.798 38.0173ZM35.1762 48.2243V29.7755L47.874 38.9999L35.1762 48.2243Z" fill="#E0E0E0"/>
</svg>
