<svg width="31" height="31" viewBox="0 0 31 31" fill="none" xmlns="http://www.w3.org/2000/svg">
<path d="M15.4999 9.29091C12.0639 9.29091 9.29086 12.064 9.29086 15.5C9.29086 18.936 12.0639 21.7091 15.4999 21.7091C18.936 21.7091 21.709 18.936 21.709 15.5C21.709 12.064 18.936 9.29091 15.4999 9.29091ZM15.4999 19.5354C13.2779 19.5354 11.4645 17.7221 11.4645 15.5C11.4645 13.2779 13.2779 11.4645 15.4999 11.4645C17.722 11.4645 19.5354 13.2779 19.5354 15.5C19.5354 17.7221 17.722 19.5354 15.4999 19.5354ZM21.9633 7.58955C21.1611 7.58955 20.5132 8.2374 20.5132 9.03965C20.5132 9.84189 21.1611 10.4897 21.9633 10.4897C22.7656 10.4897 23.4134 9.84492 23.4134 9.03965C23.4137 8.84915 23.3763 8.66048 23.3035 8.48443C23.2307 8.30839 23.1239 8.14844 22.9892 8.01374C22.8545 7.87904 22.6946 7.77223 22.5185 7.69944C22.3425 7.62665 22.1538 7.58931 21.9633 7.58955ZM27.6033 15.5C27.6033 13.8289 27.6184 12.1729 27.5246 10.5049C27.4307 8.56738 26.9887 6.84785 25.5719 5.43105C24.1521 4.01123 22.4356 3.57226 20.4981 3.47842C18.827 3.38457 17.171 3.3997 15.503 3.3997C13.8319 3.3997 12.1759 3.38457 10.5079 3.47842C8.57036 3.57226 6.85082 4.01425 5.43403 5.43105C4.0142 6.85088 3.57524 8.56738 3.48139 10.5049C3.38754 12.176 3.40268 13.8319 3.40268 15.5C3.40268 17.1681 3.38754 18.827 3.48139 20.4951C3.57524 22.4326 4.01723 24.1521 5.43403 25.5689C6.85385 26.9888 8.57036 27.4277 10.5079 27.5216C12.1789 27.6154 13.8349 27.6003 15.503 27.6003C17.1741 27.6003 18.83 27.6154 20.4981 27.5216C22.4356 27.4277 24.1551 26.9857 25.5719 25.5689C26.9917 24.1491 27.4307 22.4326 27.5246 20.4951C27.6214 18.827 27.6033 17.1711 27.6033 15.5ZM24.9392 22.6385C24.7182 23.1894 24.4518 23.6012 24.0249 24.025C23.5981 24.4519 23.1894 24.7183 22.6384 24.9393C21.046 25.572 17.2649 25.4297 15.4999 25.4297C13.735 25.4297 9.95082 25.572 8.35844 24.9423C7.80747 24.7213 7.39575 24.4549 6.97192 24.028C6.54506 23.6012 6.27866 23.1925 6.05766 22.6415C5.42797 21.0461 5.57026 17.2649 5.57026 15.5C5.57026 13.7351 5.42797 9.95088 6.05766 8.35849C6.27866 7.80752 6.54506 7.3958 6.97192 6.97197C7.39877 6.54814 7.80747 6.27871 8.35844 6.05771C9.95082 5.42802 13.735 5.57031 15.4999 5.57031C17.2649 5.57031 21.0491 5.42802 22.6415 6.05771C23.1924 6.27871 23.6041 6.54511 24.028 6.97197C24.4548 7.39883 24.7212 7.80752 24.9422 8.35849C25.5719 9.95088 25.4296 13.7351 25.4296 15.5C25.4296 17.2649 25.5719 21.0461 24.9392 22.6385Z" fill="black"/>
</svg>
