<svg width="143" height="107" viewBox="0 0 143 107" fill="none" xmlns="http://www.w3.org/2000/svg">
<path d="M49.2955 2.27264H25.8239L0 18.3295V40.2158L23.4205 25.8976H24.0341V107H49.2955V2.27264Z" fill="black"/>
<path d="M65.2474 107H142.77V86.5965H100.327V85.9317L112.855 74.3749C135.56 54.5851 141.492 44.5113 141.492 32.4942C141.492 13.6249 126.1 0.84082 102.321 0.84082C79.1565 0.84082 63.6622 14.1874 63.7134 35.5113H87.6963C87.6963 26.0511 93.5259 20.5795 102.219 20.5795C110.759 20.5795 116.946 25.8465 116.946 34.4886C116.946 42.3124 112.037 47.6306 103.446 55.3522L65.2474 88.7954V107Z" fill="black"/>
</svg>
