<svg width="234" height="107" viewBox="0 0 234 107" fill="none" xmlns="http://www.w3.org/2000/svg">
<path d="M49.2955 0.272705H25.8239L0 16.3295V38.2159L23.4205 23.8977H24.0341V105H49.2955V0.272705Z" fill="black"/>
<path d="M105.338 106.432C129.73 106.432 145.992 91.0909 145.992 69.5113C145.992 49.5682 132.083 35.3523 113.264 35.3523C103.344 35.3523 95.1111 39.5966 91.6338 45.375H91.0202L93.4236 20.6761H139.804V0.272705H72.6111L68.0599 56.7273L90.4065 60.9204C93.219 56.2159 99.0486 53.3011 105.185 53.3523C114.799 53.3523 121.651 60.1534 121.6 70.2272C121.651 80.25 114.901 87 105.338 87C97.2077 87 90.5088 81.9375 90.1509 74.2159H65.6054C65.9122 93.0341 82.4293 106.432 105.338 106.432Z" fill="black"/>
<path d="M192.779 106.432C217.171 106.432 233.432 91.0909 233.432 69.5113C233.432 49.5682 219.523 35.3523 200.705 35.3523C190.785 35.3523 182.552 39.5966 179.074 45.375H178.461L180.864 20.6761H227.245V0.272705H160.052L155.501 56.7273L177.847 60.9204C180.66 56.2159 186.489 53.3011 192.626 53.3523C202.239 53.3523 209.091 60.1534 209.04 70.2272C209.091 80.25 202.341 87 192.779 87C184.648 87 177.949 81.9375 177.591 74.2159H153.046C153.353 93.0341 169.87 106.432 192.779 106.432Z" fill="black"/>
</svg>
