<svg width="174" height="110" viewBox="0 0 174 110" fill="none" xmlns="http://www.w3.org/2000/svg">
<path d="M1.53422 107H79.0569V86.5965H36.6138V85.9317L49.1422 74.3749C71.8467 54.5851 77.7785 44.5113 77.7785 32.4942C77.7785 13.6249 62.3865 0.84082 38.6081 0.84082C15.4433 0.84082 -0.0510101 14.1874 0.000126194 35.5113H23.9831C23.9831 26.0511 29.8126 20.5795 38.5058 20.5795C47.0456 20.5795 53.2331 25.8465 53.2331 34.4886C53.2331 42.3124 48.324 47.6306 39.7331 55.3522L1.53422 88.7954V107Z" fill="black"/>
<path d="M129.475 109.557C156.884 109.608 173.708 89.3579 173.759 54.7897C173.81 20.4261 156.884 0.84082 129.475 0.84082C102.066 0.84082 85.293 20.3749 85.2419 54.7897C85.1396 89.2556 102.066 109.557 129.475 109.557ZM129.475 88.8465C118.583 88.8465 111.168 77.9033 111.27 54.7897C111.321 32.1363 118.634 21.3976 129.475 21.3976C140.367 21.3976 147.679 32.1363 147.731 54.7897C147.782 77.9033 140.418 88.8465 129.475 88.8465Z" fill="black"/>
</svg>
