<svg width="22" height="22" viewBox="0 0 22 22" fill="none" xmlns="http://www.w3.org/2000/svg">
<path fill-rule="evenodd" clip-rule="evenodd" d="M2.64443 5.29598C1.18301 5.29598 0 4.10927 0 2.64733C0.00033184 1.18671 1.18301 0 2.64443 0C4.10188 0 5.28654 1.18671 5.28654 2.64733C5.28654 4.10961 4.10154 5.29598 2.64443 5.29598ZM4.92318 22H0.363697V7.30475H4.92318V22ZM17.4442 22H22V13.9397C22 9.98299 21.1478 6.93943 16.5309 6.93943C14.3126 6.93943 12.8259 8.15738 12.217 9.31284H12.1556V7.30475H7.78264V21.9997H12.3381V14.7302C12.3381 12.8135 12.7028 10.9573 15.0742 10.9573C17.4126 10.9573 17.4442 13.1492 17.4442 14.8535V22Z" fill="white"/>
</svg>
