<svg width="14" height="19" viewBox="0 0 14 19" fill="none" xmlns="http://www.w3.org/2000/svg">
<path d="M7 18.9998C5.73693 17.9224 4.56619 16.7413 3.5 15.4688C1.9 13.5578 8.83662e-07 10.7118 8.83662e-07 7.99981C-0.00141728 5.16735 1.70425 2.6132 4.32107 1.5292C6.93789 0.445211 9.95007 1.04505 11.952 3.04881C13.2685 4.35941 14.0059 6.14219 14 7.99981C14 10.7118 12.1 13.5578 10.5 15.4688C9.43382 16.7413 8.26307 17.9224 7 18.9998ZM7 2.99981C4.23995 3.00311 2.00331 5.23975 2 7.99981C2 9.16581 2.527 11.1848 5.035 14.1858C5.65314 14.9239 6.30902 15.6295 7 16.2998C7.69105 15.6303 8.34724 14.9257 8.966 14.1888C11.473 11.1838 12 9.16481 12 7.99981C11.9967 5.23975 9.76006 3.00311 7 2.99981ZM7 10.9998C5.34315 10.9998 4 9.65666 4 7.99981C4 6.34295 5.34315 4.99981 7 4.99981C8.65686 4.99981 10 6.34295 10 7.99981C10 8.79546 9.68393 9.55852 9.12132 10.1211C8.55871 10.6837 7.79565 10.9998 7 10.9998Z" fill="#828282"/>
</svg>
