<svg width="92" height="42" viewBox="0 0 92 42" fill="none" xmlns="http://www.w3.org/2000/svg">
<path d="M92 25.1084C92 28.8058 84.3065 32.0681 72.5285 34.0497C71.8921 34.1544 71.2476 34.2592 70.587 34.3639C69.6445 34.5008 68.6858 34.6378 67.6949 34.7666C66.6074 34.9036 65.4956 35.0325 64.3597 35.1533C58.7366 35.7413 52.5254 36.0635 46 36.0635C39.4746 36.0635 33.2634 35.7413 27.6403 35.1533C26.5044 35.0405 25.3926 34.9116 24.3051 34.7666C23.3142 34.6378 22.3555 34.5089 21.413 34.3639C20.7524 34.2592 20.1079 34.1625 19.4715 34.0497C7.69352 32.0681 0 28.8058 0 25.1084C0 22.4743 3.90718 20.0578 10.4084 18.1729C5.83257 19.7758 3.16602 21.701 3.16602 23.7793C3.16602 27.1625 10.2312 29.6999 21.0827 31.5284C21.7191 31.6332 22.3636 31.7379 23.0242 31.8345C23.9667 31.9715 24.9335 32.1084 25.9243 32.2292C27.0119 32.3662 28.1236 32.487 29.2676 32.6078C34.4074 33.1234 40.0627 33.4053 46 33.4053C51.9373 33.4053 57.5926 33.1234 62.7324 32.6078C63.8683 32.4951 64.9881 32.3662 66.0757 32.2292C67.0666 32.1084 68.0333 31.9715 68.9758 31.8345C69.6364 31.7379 70.2809 31.6332 70.9173 31.5284C81.7688 29.6999 88.834 27.1544 88.834 23.7793C88.834 21.701 86.1674 19.7758 81.5916 18.1729C88.0928 20.0578 92 22.4743 92 25.1084Z" fill="#F2F2F2"/>
<path d="M77.3543 23.4488L77.1851 22.4178L68.9196 11.3901L68.7665 11.5674L68.6135 11.3901L61.0891 21.427L62.2331 22.8044L62.6359 22.6836L68.7665 14.6283L74.8972 22.6836L77.3543 23.4488Z" fill="#BDBDBD"/>
<path d="M23.3868 11.3901L23.2337 11.5674L23.0807 11.3901L14.8152 22.4178L14.646 23.4488L17.1031 22.6836L23.2337 14.6283L29.3644 22.6836L29.6947 22.7883L30.8789 21.3867L23.3868 11.3901Z" fill="#BDBDBD"/>
<path d="M62.2168 33.0907L62.0477 32.0596L47.579 12.711L48.0624 12.0746L46.3706 10.1011L46 10.6005L45.6294 10.1011L43.9377 12.0746L44.421 12.711L29.9524 32.0596L29.7832 33.0907L32.8606 32.1241L46 14.7973L59.1394 32.1241L62.2168 33.0907Z" fill="#BDBDBD"/>
<path d="M59.2926 24.6331L57.9473 22.8368L56.763 21.2499L56.2233 20.533L47.7483 9.24764L46.0002 6.91162L44.252 9.24764L36.0509 20.1786L35.2453 21.2499L34.0611 22.8368L32.7077 24.6331L26.6737 32.6803L25.1108 34.7666C26.1581 34.9036 27.2296 35.0325 28.3252 35.1533L29.8961 33.0589L34.4639 26.9692L35.8093 25.1728L36.9935 23.586L37.7991 22.5146L46.0002 11.5756L62.1122 33.0509L63.6832 35.1452C64.7788 35.0325 65.8502 34.9036 66.8975 34.7586L65.3347 32.6723L59.2926 24.6331Z" fill="#F2F2F2"/>
<path d="M83.0579 22.1519L72.1017 7.54776L70.7563 5.75144L69.564 4.17261L68.7584 3.09321L58.1647 4.88953L46.0001 0L33.8355 4.88953L23.2337 3.09321L22.4281 4.17261L21.2358 5.75144L19.8985 7.54776L8.94231 22.1519L7.97559 23.4407H9.58679L10.5535 22.1519L20.7041 8.6191L22.0495 6.83084L23.2337 5.24396L24.418 6.83084L25.7633 8.6191L32.6432 17.794L31.4589 19.3809L24.5791 10.206L23.2337 8.40967L21.8884 10.206L12.922 22.1519L11.9553 23.4407L14.646 23.4488L15.6127 22.16L23.2337 12.0023L30.1136 21.1772L22.0173 31.9712L20.4625 34.0495C21.0747 34.1542 21.695 34.2589 22.3315 34.3636L23.8943 32.2854L31.177 22.5788L32.5223 20.7825L33.7066 19.1956L34.5122 18.1243L42.7052 7.18527L44.4533 4.85731L46.0001 2.79517L47.5469 4.84925L49.295 7.17721L57.4961 18.1082L57.5847 18.229L68.1139 32.2693L69.6768 34.3475C70.3132 34.2428 70.9335 34.1461 71.5458 34.0334L69.991 31.9551L61.8866 21.1772L68.7665 12.0023L76.3875 22.168L77.3542 23.4568L80.0449 23.4488L79.0782 22.16L70.1118 10.206L68.7665 8.40967L67.4211 10.206L60.5413 19.3809L59.357 17.794L66.2288 8.6191L67.5742 6.83084L68.7584 5.24396L69.9427 6.83084L71.2961 8.6191L81.4467 22.1519L82.4134 23.4407H84.0246L83.0579 22.1519Z" fill="#F2F2F2"/>
<path d="M85.9018 33.0908C81.4871 37.7145 65.2944 41.9999 46.0002 41.9999C26.706 41.9999 10.5133 37.7145 6.09863 33.0908C13.7438 36.4982 28.7442 38.8181 46.0002 38.8181C63.2563 38.8181 78.2566 36.4982 85.9018 33.0908Z" fill="#F2F2F2"/>
<path d="M45.138 21.7974H42.6406V24.2945H45.138V21.7974Z" fill="#F2F2F2"/>
<path d="M49.3592 21.7974H46.8618V24.2945H49.3592V21.7974Z" fill="#F2F2F2"/>
<path d="M45.138 25.8008H42.6406V28.2979H45.138V25.8008Z" fill="#F2F2F2"/>
<path d="M49.3592 25.8008H46.8618V28.2979H49.3592V25.8008Z" fill="#F2F2F2"/>
<path d="M23.1772 17.8423H22.2427V18.7767H23.1772V17.8423Z" fill="#F2F2F2"/>
<path d="M24.7641 17.8423H23.8296V18.7767H24.7641V17.8423Z" fill="#F2F2F2"/>
<path d="M23.1772 19.3486H22.2427V20.283H23.1772V19.3486Z" fill="#F2F2F2"/>
<path d="M24.7641 19.3486H23.8296V20.283H24.7641V19.3486Z" fill="#F2F2F2"/>
<path d="M68.8189 18.7861H69.7534V17.8517H68.8189V18.7861Z" fill="#F2F2F2"/>
<path d="M67.2359 18.7861H68.1704V17.8517H67.2359V18.7861Z" fill="#F2F2F2"/>
<path d="M68.8189 20.2827H69.7534V19.3483H68.8189V20.2827Z" fill="#F2F2F2"/>
<path d="M67.2359 20.2827H68.1704V19.3483H67.2359V20.2827Z" fill="#F2F2F2"/>
</svg>
