<svg width="98" height="66" viewBox="0 0 98 66" fill="none" xmlns="http://www.w3.org/2000/svg">
<path d="M95 25.1084C95 28.8058 87.3065 32.0681 75.5285 34.0497C74.8921 34.1544 74.2476 34.2592 73.587 34.3639C72.6445 34.5008 71.6858 34.6378 70.6949 34.7666C69.6074 34.9036 68.4956 35.0325 67.3597 35.1533C61.7366 35.7413 55.5254 36.0635 49 36.0635C42.4746 36.0635 36.2634 35.7413 30.6403 35.1533C29.5044 35.0405 28.3926 34.9116 27.3051 34.7666C26.3142 34.6378 25.3555 34.5089 24.413 34.3639C23.7524 34.2592 23.1079 34.1625 22.4715 34.0497C10.6935 32.0681 3 28.8058 3 25.1084C3 22.4743 6.90718 20.0578 13.4084 18.1729C8.83257 19.7758 6.16602 21.701 6.16602 23.7793C6.16602 27.1625 13.2312 29.6999 24.0827 31.5284C24.7191 31.6332 25.3636 31.7379 26.0242 31.8345C26.9667 31.9715 27.9335 32.1084 28.9243 32.2292C30.0119 32.3662 31.1236 32.487 32.2676 32.6078C37.4074 33.1234 43.0627 33.4053 49 33.4053C54.9373 33.4053 60.5926 33.1234 65.7324 32.6078C66.8683 32.4951 67.9881 32.3662 69.0757 32.2292C70.0666 32.1084 71.0333 31.9715 71.9758 31.8345C72.6364 31.7379 73.2809 31.6332 73.9173 31.5284C84.7688 29.6999 91.834 27.1544 91.834 23.7793C91.834 21.701 89.1674 19.7758 84.5916 18.1729C91.0928 20.0578 95 22.4743 95 25.1084Z" fill="#F2F2F2"/>
<path d="M80.3543 23.4488L80.1851 22.4178L71.9196 11.3901L71.7665 11.5674L71.6135 11.3901L64.0891 21.427L65.2331 22.8044L65.6359 22.6836L71.7665 14.6283L77.8972 22.6836L80.3543 23.4488Z" fill="#BDBDBD"/>
<path d="M26.3868 11.3901L26.2337 11.5674L26.0807 11.3901L17.8152 22.4178L17.646 23.4488L20.1031 22.6836L26.2337 14.6283L32.3644 22.6836L32.6947 22.7883L33.8789 21.3867L26.3868 11.3901Z" fill="#BDBDBD"/>
<path d="M65.2168 33.0907L65.0477 32.0596L50.579 12.711L51.0624 12.0746L49.3706 10.1011L49 10.6005L48.6294 10.1011L46.9377 12.0746L47.421 12.711L32.9524 32.0596L32.7832 33.0907L35.8606 32.1241L49 14.7973L62.1394 32.1241L65.2168 33.0907Z" fill="#BDBDBD"/>
<path d="M62.2926 24.6331L60.9473 22.8368L59.763 21.2499L59.2233 20.533L50.7483 9.24764L49.0002 6.91162L47.252 9.24764L39.0509 20.1786L38.2453 21.2499L37.0611 22.8368L35.7077 24.6331L29.6737 32.6803L28.1108 34.7666C29.1581 34.9036 30.2296 35.0325 31.3252 35.1533L32.8961 33.0589L37.4639 26.9692L38.8093 25.1728L39.9935 23.586L40.7991 22.5146L49.0002 11.5756L65.1122 33.0509L66.6832 35.1452C67.7788 35.0325 68.8502 34.9036 69.8975 34.7586L68.3347 32.6723L62.2926 24.6331Z" fill="#F2F2F2"/>
<path d="M86.0579 22.1519L75.1017 7.54776L73.7563 5.75144L72.564 4.17261L71.7584 3.09321L61.1647 4.88953L49.0001 0L36.8355 4.88953L26.2337 3.09321L25.4281 4.17261L24.2358 5.75144L22.8985 7.54776L11.9423 22.1519L10.9756 23.4407H12.5868L13.5535 22.1519L23.7041 8.6191L25.0495 6.83084L26.2337 5.24396L27.418 6.83084L28.7633 8.6191L35.6432 17.794L34.4589 19.3809L27.5791 10.206L26.2337 8.40967L24.8884 10.206L15.922 22.1519L14.9553 23.4407L17.646 23.4488L18.6127 22.16L26.2337 12.0023L33.1136 21.1772L25.0173 31.9712L23.4625 34.0495C24.0747 34.1542 24.695 34.2589 25.3315 34.3636L26.8943 32.2854L34.177 22.5788L35.5223 20.7825L36.7066 19.1956L37.5122 18.1243L45.7052 7.18527L47.4533 4.85731L49.0001 2.79517L50.5469 4.84925L52.295 7.17721L60.4961 18.1082L60.5847 18.229L71.1139 32.2693L72.6768 34.3475C73.3132 34.2428 73.9335 34.1461 74.5458 34.0334L72.991 31.9551L64.8866 21.1772L71.7665 12.0023L79.3875 22.168L80.3542 23.4568L83.0449 23.4488L82.0782 22.16L73.1118 10.206L71.7665 8.40967L70.4211 10.206L63.5413 19.3809L62.357 17.794L69.2288 8.6191L70.5742 6.83084L71.7584 5.24396L72.9427 6.83084L74.2961 8.6191L84.4467 22.1519L85.4134 23.4407H87.0246L86.0579 22.1519Z" fill="#F2F2F2"/>
<path d="M88.9018 33.0908C84.4871 37.7145 68.2944 41.9999 49.0002 41.9999C29.706 41.9999 13.5133 37.7145 9.09863 33.0908C16.7438 36.4982 31.7442 38.8181 49.0002 38.8181C66.2563 38.8181 81.2566 36.4982 88.9018 33.0908Z" fill="#F2F2F2"/>
<path d="M48.138 21.7974H45.6406V24.2945H48.138V21.7974Z" fill="#F2F2F2"/>
<path d="M52.3592 21.7974H49.8618V24.2945H52.3592V21.7974Z" fill="#F2F2F2"/>
<path d="M48.138 25.8008H45.6406V28.2979H48.138V25.8008Z" fill="#F2F2F2"/>
<path d="M52.3592 25.8008H49.8618V28.2979H52.3592V25.8008Z" fill="#F2F2F2"/>
<path d="M26.1772 17.8423H25.2427V18.7767H26.1772V17.8423Z" fill="#F2F2F2"/>
<path d="M27.7641 17.8423H26.8296V18.7767H27.7641V17.8423Z" fill="#F2F2F2"/>
<path d="M26.1772 19.3486H25.2427V20.283H26.1772V19.3486Z" fill="#F2F2F2"/>
<path d="M27.7641 19.3486H26.8296V20.283H27.7641V19.3486Z" fill="#F2F2F2"/>
<path d="M71.8189 18.7861H72.7534V17.8517H71.8189V18.7861Z" fill="#F2F2F2"/>
<path d="M70.2359 18.7861H71.1704V17.8517H70.2359V18.7861Z" fill="#F2F2F2"/>
<path d="M71.8189 20.2827H72.7534V19.3483H71.8189V20.2827Z" fill="#F2F2F2"/>
<path d="M70.2359 20.2827H71.1704V19.3483H70.2359V20.2827Z" fill="#F2F2F2"/>
<path d="M1.29119 61H9.42827V59.0121H3.66264V47.9091H1.29119V61ZM15.6669 61.1918C18.5433 61.1918 20.3714 59.1655 20.3714 56.1293C20.3714 53.0866 18.5433 51.054 15.6669 51.054C12.7905 51.054 10.9624 53.0866 10.9624 56.1293C10.9624 59.1655 12.7905 61.1918 15.6669 61.1918ZM15.6797 59.3381C14.0881 59.3381 13.3082 57.919 13.3082 56.1229C13.3082 54.3267 14.0881 52.8885 15.6797 52.8885C17.2457 52.8885 18.0256 54.3267 18.0256 56.1229C18.0256 57.919 17.2457 59.3381 15.6797 59.3381ZM26.6053 64.8864C29.258 64.8864 31.214 63.6719 31.214 61.1598V51.1818H28.932V52.8054H28.8042C28.4526 52.0959 27.7175 51.054 25.9853 51.054C23.7161 51.054 21.9327 52.831 21.9327 56.0589C21.9327 59.2614 23.7161 60.8594 25.9789 60.8594C27.66 60.8594 28.4462 59.9581 28.8042 59.2358H28.9192V61.0959C28.9192 62.5405 27.9604 63.1349 26.6436 63.1349C25.2502 63.1349 24.6365 62.4766 24.3553 61.9013L22.2715 62.4062C22.6934 63.7805 24.106 64.8864 26.6053 64.8864ZM26.6245 59.044C25.0968 59.044 24.2914 57.8551 24.2914 56.0462C24.2914 54.2628 25.084 52.9524 26.6245 52.9524C28.1138 52.9524 28.932 54.1861 28.932 56.0462C28.932 57.919 28.101 59.044 26.6245 59.044ZM37.8681 61.1918C40.7445 61.1918 42.5726 59.1655 42.5726 56.1293C42.5726 53.0866 40.7445 51.054 37.8681 51.054C34.9917 51.054 33.1635 53.0866 33.1635 56.1293C33.1635 59.1655 34.9917 61.1918 37.8681 61.1918ZM37.8809 59.3381C36.2892 59.3381 35.5094 57.919 35.5094 56.1229C35.5094 54.3267 36.2892 52.8885 37.8809 52.8885C39.4469 52.8885 40.2267 54.3267 40.2267 56.1229C40.2267 57.919 39.4469 59.3381 37.8809 59.3381ZM59.7464 47.9091H58.5703V58.8842H58.468L50.7081 47.9091H49.5511V61H50.7464V50.0376H50.8487L58.5831 61H59.7464V47.9091ZM65.7326 61.2237C67.369 61.2237 68.3661 60.3161 68.7752 59.4467H68.8455V61H69.9833V54.3331C69.9833 51.6996 68.0018 51.0476 66.4996 51.0476C64.9975 51.0476 63.4506 51.642 62.7859 53.2464L63.8661 53.6364C64.2241 52.7926 65.1126 52.0703 66.5316 52.0703C68.021 52.0703 68.8455 52.8885 68.8455 54.2308V54.4609C68.8455 55.2024 67.9251 55.2152 66.2759 55.4197C64.0579 55.6946 62.5046 56.3146 62.5046 58.2578C62.5046 60.1499 63.9492 61.2237 65.7326 61.2237ZM65.886 60.1818C64.6012 60.1818 63.6424 59.4979 63.6424 58.3089C63.6424 57.12 64.614 56.6214 66.2759 56.4169C67.0813 56.321 68.5131 56.142 68.8455 55.8161V57.2351C68.8455 58.8459 67.7013 60.1818 65.886 60.1818ZM73.0099 61H74.1477V54.7102C74.1477 53.1825 75.1641 52.0959 76.5256 52.0959C77.8679 52.0959 78.6477 52.9908 78.6477 54.3203V61H79.8111V54.5376C79.8111 53.125 80.6548 52.0959 82.1506 52.0959C83.4482 52.0959 84.3111 52.8757 84.3111 54.4226V61H85.4489V54.4226C85.4489 52.2237 84.3175 51.054 82.4957 51.054C81.0639 51.054 80.0284 51.7507 79.5874 52.8374H79.5043C79.0696 51.7251 78.2067 51.054 76.8516 51.054C75.5668 51.054 74.608 51.674 74.218 52.6903H74.1158V51.1818H73.0099V61ZM92.4306 61.2045C94.3993 61.2045 95.7225 60.1371 96.1699 58.9034L95.0897 58.5518C94.7125 59.4339 93.824 60.1626 92.4306 60.1626C90.4235 60.1626 89.1515 58.6989 89.1003 56.4297H96.4128V55.8672C96.4128 52.5881 94.3865 51.0476 92.258 51.0476C89.714 51.0476 87.9561 53.1761 87.9561 56.1484C87.9561 59.1271 89.682 61.2045 92.4306 61.2045ZM89.1067 55.4261C89.2282 53.598 90.4618 52.0831 92.258 52.0831C94.0158 52.0831 95.2495 53.5341 95.2495 55.4261H89.1067Z" fill="#F2F2F2"/>
</svg>
