<svg width="24" height="24" viewBox="0 0 24 24" fill="none" xmlns="http://www.w3.org/2000/svg">
<path d="M20.381 1H3.61905C2.1749 1 1 2.1749 1 3.61905V20.381C1 21.8251 2.1749 23 3.61905 23H20.381C21.8251 23 23 21.8251 23 20.381V3.61905C23 2.1749 21.8251 1 20.381 1ZM18.2889 10.5978C18.17 10.6088 18.0495 10.6161 17.9274 10.6161C16.5535 10.6161 15.3461 9.90948 14.6437 8.84143C14.6437 11.6433 14.6437 14.8312 14.6437 14.8846C14.6437 17.3512 12.6438 19.3511 10.1771 19.3511C7.71052 19.3511 5.71062 17.3512 5.71062 14.8846C5.71062 12.418 7.71052 10.4181 10.1771 10.4181C10.2704 10.4181 10.3615 10.4265 10.4532 10.4322V12.6333C10.3615 12.6223 10.2714 12.6055 10.1771 12.6055C8.91791 12.6055 7.89752 13.6259 7.89752 14.8851C7.89752 16.1444 8.91791 17.1648 10.1771 17.1648C11.4364 17.1648 12.5484 16.1727 12.5484 14.9134C12.5484 14.8637 12.5704 4.64991 12.5704 4.64991H14.674C14.872 6.53091 16.3906 8.01538 18.2889 8.15157V10.5978Z" fill="white"/>
</svg>
