<svg width="18" height="19" viewBox="0 0 18 19" fill="none" xmlns="http://www.w3.org/2000/svg">
<path d="M16.5 18.9998H16.4998L11.9993 18.9993C11.6016 18.9987 11.2204 18.8405 10.9392 18.5593C10.6581 18.2781 10.4999 17.8969 10.4994 17.4993V12.9992H7.49944V17.4992C7.49897 17.8968 7.34081 18.278 7.05964 18.5592C6.77848 18.8404 6.39727 18.9987 5.99963 18.9992L1.50019 18.9999C1.30319 18.9999 1.10811 18.9612 0.926105 18.8858C0.744095 18.8104 0.578714 18.6999 0.439406 18.5606C0.300099 18.4214 0.189593 18.256 0.114199 18.074C0.038805 17.892 -1.53905e-09 17.6969 0 17.4999V8.8318C0.000163436 8.62281 0.0439108 8.41615 0.128448 8.22503C0.212985 8.03391 0.336454 7.86251 0.490969 7.7218L7.99031 0.903078C8.26579 0.650753 8.62579 0.510777 8.99935 0.510742C9.37292 0.510707 9.73295 0.650617 10.0085 0.90289L17.5091 7.72189C17.6636 7.86262 17.787 8.03401 17.8715 8.22511C17.9561 8.41621 17.9998 8.62284 18 8.8318V17.4999C18 17.8977 17.842 18.2793 17.5607 18.5606C17.2794 18.8419 16.8978 18.9999 16.5 18.9999V18.9998ZM7.49944 11.4992H10.4994C10.8971 11.4996 11.2784 11.6578 11.5596 11.939C11.8408 12.2202 11.999 12.6015 11.9994 12.9992V17.5001L16.5 17.4999V8.8318L8.99944 2.01289L1.5 8.8317V17.4998L5.99944 17.4993V12.9992C5.99988 12.6015 6.15806 12.2202 6.43927 11.939C6.72048 11.6578 7.10175 11.4996 7.49944 11.4992Z" fill="#828282"/>
</svg>
